<?xml version="1.0" standalone="no"?>
<!DOCTYPE svg PUBLIC "-//W3C//DTD SVG 20010904//EN"
 "http://www.w3.org/TR/2001/REC-SVG-20010904/DTD/svg10.dtd">
<svg version="1.0" xmlns="http://www.w3.org/2000/svg"
 width="512.000000pt" height="512.000000pt" viewBox="0 0 512.000000 512.000000"
 preserveAspectRatio="xMidYMid meet">
<metadata>
Created by potrace 1.11, written by Peter Selinger 2001-2013
</metadata>
<g transform="translate(0.000000,512.000000) scale(0.100000,-0.100000)"
fill="#000000" stroke="none">
<path d="M2521 4573 c-22 -32 -46 -67 -53 -77 -7 -11 -32 -42 -55 -70 -151
-181 -223 -359 -250 -611 -13 -121 -7 -380 12 -485 1 -8 6 -35 10 -59 4 -24
25 -93 46 -154 37 -102 91 -295 103 -362 11 -67 25 -163 31 -217 9 -78 10
-302 1 -363 -46 -334 -120 -530 -303 -803 -41 -61 -76 -112 -77 -112 -2 0 21
71 50 158 45 134 84 283 109 422 13 72 13 364 0 445 -21 124 -20 123 -65 250
-23 66 -58 165 -77 220 -96 274 -114 599 -49 874 8 31 15 61 17 66 10 25 -12
16 -62 -25 -530 -445 -832 -880 -924 -1330 -22 -107 -25 -338 -6 -430 47 -229
152 -409 333 -571 210 -188 365 -358 435 -477 52 -88 105 -208 129 -295 l27
-93 371 2 c204 1 470 3 592 4 l221 1 274 210 c151 115 308 233 349 261 135 93
232 198 304 330 37 66 94 211 102 258 3 14 7 32 9 40 36 128 41 447 9 635 -21
122 -52 230 -85 297 -68 138 -290 478 -490 753 -124 171 -123 169 -98 105 49
-128 88 -262 104 -355 29 -166 22 -370 -19 -540 -34 -144 -144 -358 -254 -497
-57 -71 -223 -241 -229 -234 -2 2 14 32 35 67 50 83 99 186 129 274 13 39 24
72 24 75 0 3 4 22 9 42 6 20 13 56 16 80 3 24 10 62 14 86 8 48 5 322 -4 362
-3 14 -8 39 -10 55 -26 188 -144 473 -262 631 -90 121 -161 270 -178 375 -3
18 -10 59 -16 89 -6 30 -11 108 -11 173 -1 65 -2 117 -4 115 -17 -19 -61 -118
-71 -163 -22 -92 -25 -211 -10 -295 16 -82 49 -171 97 -255 99 -177 180 -355
161 -355 -28 0 -257 280 -384 469 -98 145 -139 282 -141 471 -2 174 24 335 81
505 15 47 27 85 26 85 -1 0 -21 -26 -43 -57z"/>
</g>
</svg>
